<svg width="90" height="90" viewBox="0 0 90 90" fill="none" xmlns="http://www.w3.org/2000/svg">
<path fill-rule="evenodd" clip-rule="evenodd" d="M4.5 0H85.5C87.984 0 90 2.016 90 4.5V60.75V74.25V76.5C90 77.742 88.9942 78.75 87.75 78.75H85.5H56.745L58.0928 85.5H60.75C61.9943 85.5 63 86.5058 63 87.75C63 88.9942 61.9943 90 60.75 90H29.25C28.0058 90 27 88.9942 27 87.75C27 86.5058 28.0058 85.5 29.25 85.5H31.9072L33.255 78.75H4.5H2.25C1.00575 78.75 0 77.742 0 76.5V74.25V60.75V42.75C0 40.266 2.016 38.25 4.5 38.25H14.4765L20.5717 28.0912C20.9835 27.4028 21.7845 27.0158 22.5382 27C23.3415 27.0135 24.075 27.4545 24.4665 28.1565L33.5768 44.5522L47.4615 14.7983C47.8305 14.0063 48.6247 13.5 49.5112 13.5C50.391 13.5045 51.1852 14.0197 51.5475 14.8185L62.199 38.25H74.25C75.4942 38.25 76.5 39.258 76.5 40.5C76.5 41.742 75.4942 42.75 74.25 42.75H60.7523C59.868 42.75 59.067 42.2347 58.7025 41.4315L49.473 21.1275L35.7885 50.4518C35.4308 51.219 34.6748 51.7185 33.8288 51.7477C32.9873 51.813 32.1953 51.3315 31.7835 50.5913L22.4258 33.7477L17.6782 41.6587C17.2733 42.336 16.542 42.75 15.75 42.75H4.5V58.5C4.5 59.742 5.50575 60.75 6.75 60.75H85.5V6.75C85.5 5.508 84.4942 4.5 83.25 4.5H4.5V27C4.5 28.242 3.49425 29.25 2.25 29.25C1.00575 29.25 0 28.242 0 27V4.5C0 2.016 2.016 0 4.5 0ZM4.5 72V65.25H83.25C84.4942 65.25 85.5 66.258 85.5 67.5V74.25H6.75C5.50575 74.25 4.5 73.242 4.5 72ZM53.5053 85.5H36.4953L37.843 78.75H52.1575L53.5053 85.5Z" fill="#00112C"/>
</svg>
